# xmcd
#
# Track frame offsets:
#	150
#	18440
#	43870
#
# Disc length: 856 seconds
#
# Revision: 0
# Processed by: cddbd v1.5.2PL0 Copyright (c) Steve Scherf et al.
# Submitted via: audiograbber 1.83.01
#
DISCID=1e035603
DTITLE=Tino - Summertime [CDS)
DYEAR=1997
DGENRE=Pop
TTITLE0=Summertime (Radio Edit)
TTITLE1=Summertime (Album Version)
TTITLE2=Summertime (JB's Mix)
EXTD=TR.
EXTT0=
EXTT1=
EXTT2=
PLAYORDER=
